# xmcd
#
# Track frame offsets: 
#        150
#        22675
#        45886
#        69514
#        89975
#        113509
#        136485
#        159236
#        180295
#        203429
#        225060
#        247785
#        270167
#        292476
#        315161
#
# Disc length: 4596 seconds
#
# Revision: 2
# Processed by: cddbd v1.5.2PL0 Copyright (c) Steve Scherf et al.
# Submitted via: ExactAudioCopy v0.99pb4
#
DISCID=aa11f20f
DTITLE=Susanne Fröhlich - [CD 3) Familienpackung
DYEAR=2005
DGENRE=Hörbuch
TTITLE0=Familienpackung (3-1)
TTITLE1=Familienpackung (3-2)
TTITLE2=Familienpackung (3-3)
TTITLE3=Familienpackung (3-4)
TTITLE4=Familienpackung (3-5)
TTITLE5=Familienpackung (3-6)
TTITLE6=Familienpackung (3-7)
TTITLE7=Familienpackung (3-8)
TTITLE8=Familienpackung (3-9)
TTITLE9=Familienpackung (3-10)
TTITLE10=Familienpackung (3-11)
TTITLE11=Familienpackung (3-12)
TTITLE12=Familienpackung (3-13)
TTITLE13=Familienpackung (3-14)
TTITLE14=Familienpackung (3-15)
EXTD=
EXTT0=
EXTT1=
EXTT2=
EXTT3=
EXTT4=
EXTT5=
EXTT6=
EXTT7=
EXTT8=
EXTT9=
EXTT10=
EXTT11=
EXTT12=
EXTT13=
EXTT14=
PLAYORDER=
